<?xml version="1.0" encoding="utf-8"?>
<!-- Generator: Adobe Illustrator 22.0.0, SVG Export Plug-In . SVG Version: 6.00 Build 0)  -->
<svg version="1.1" id="Layer_1" xmlns="http://www.w3.org/2000/svg" xmlns:xlink="http://www.w3.org/1999/xlink" x="0px" y="0px"
	 viewBox="0 0 512 512" style="enable-background:new 0 0 512 512;" xml:space="preserve">
<g>
	<polygon points="388.3,310.6 388.3,310.7 388.2,310.7 	"/>
	<path d="M254.5,116.4c-0.4,0.7-0.7,1.3-1.1,2h-0.1L254.5,116.4z"/>
	<path d="M388.2,312.9L388.2,312.9l0.1-0.1L388.2,312.9z"/>
	<path d="M253.3,118.4l-6.4,11l-66.9,115.8H46.9L5.7,316.7h133.2L53.8,464h82.5l85-147.3h91.3L364.4,464h75.7l-52-148.2
		c44.9-5.2,83-32.4,103.4-70.5c10.1-18.9,15.8-40.5,15.8-63.4s-5.7-44.5-15.8-63.4c-22-41.2-64.8-69.7-114.5-71.4
		c-1.5-0.1-3-0.1-4.6-0.1H161.4l-41.2,71.4H253.3 M388.3,312.9L388.3,312.9l0-0.1L388.3,312.9z M388.3,310.7L388.3,310.7l0-0.1
		L388.3,310.7z M372.5,245.3H262.6l15.6-26.9l38.8-67.1c0.3-0.6,0.7-1.3,1.1-1.9l7.2-12.5l10.6-18.3h36.6c35,0,63.4,28.4,63.4,63.4
		S407.5,245.3,372.5,245.3z"/>
</g>
</svg>
