<svg id="Layer_1" data-name="Layer 1" xmlns="http://www.w3.org/2000/svg" viewBox="0 0 1024 1024"><defs><style>.cls-1{fill:none;}.cls-2{fill:#f21141;}.cls-3{fill:#071942;}</style></defs><title>Monogram</title><path class="cls-1" d="M445,644.55a245.68,245.68,0,0,0,133.56,0L511.79,486.62Z"/><path class="cls-2" d="M899.79,401c0,123.53-58.21,233.51-148.43,304.61A385.38,385.38,0,0,1,392,769.88l53-125.33a252.16,252.16,0,0,0,250.67-70.62c42.59-45.27,68.9-106,68.9-172.93,0-139.39-113.4-252.79-252.79-252.79a251.29,251.29,0,0,0-137.76,41L320.64,63.45A385.72,385.72,0,0,1,511.79,13C725.74,13,899.79,187.06,899.79,401Z"/><path class="cls-2" d="M259,401c0-.5,0-1,0-1.47H123.81c0,.49,0,1,0,1.47,0,123.52,58.21,233.49,148.43,304.6L327.9,573.93C285.31,528.66,259,467.91,259,401Z"/><path class="cls-3" d="M631.56,769.88,732.25,1008h147L751.36,705.61A387,387,0,0,1,631.56,769.88Z"/><path class="cls-3" d="M695.68,573.93a252.56,252.56,0,0,1-117.11,70.62L511.79,486.62,445,644.55,392,769.88,291.34,1008h-147L272.22,705.61,327.9,573.93,438.3,312.82h147Z"/></svg>